<?xml version="1.0" encoding="UTF-8" standalone="no"?>
<svg
   xmlns:dc="http://purl.org/dc/elements/1.1/"
   xmlns:cc="http://creativecommons.org/ns#"
   xmlns:rdf="http://www.w3.org/1999/02/22-rdf-syntax-ns#"
   xmlns:svg="http://www.w3.org/2000/svg"
   xmlns="http://www.w3.org/2000/svg"
   viewBox="0 0 1122.52 1587.4"
   height="1587.4"
   width="1122.52"
   xml:space="preserve"
   id="svg2"
   version="1.1"><metadata
     id="metadata8"><rdf:RDF><cc:Work
         rdf:about=""><dc:format>image/svg+xml</dc:format><dc:type
           rdf:resource="http://purl.org/dc/dcmitype/StillImage" /></cc:Work></rdf:RDF></metadata><defs
     id="defs6"><clipPath
       id="clipPath18"
       clipPathUnits="userSpaceOnUse"><path
         id="path16"
         d="M 0,1190.55 H 841.89 V 0 H 0 Z" /></clipPath></defs><g
     transform="matrix(1.3333333,0,0,-1.3333333,0,1587.4)"
     id="g10"><g
       id="g12"><g
         clip-path="url(#clipPath18)"
         id="g14"><g
           transform="translate(360.0516,471.0509)"
           id="g20"><path
             id="path22"
             style="fill:#834c9c;fill-opacity:1;fill-rule:nonzero;stroke:none"
             d="M 0,0 V 221.908 C -53.339,170.568 -57.159,52.23 0,0 m 30.37,114.585 c 10e-4,-42.92 0.125,-85.841 -0.124,-128.76 -0.04,-6.91 1.926,-10.972 8.662,-13.566 8.493,-3.271 16.857,-6.914 25.734,-8.92 6.483,-1.464 9.144,-5.006 8.437,-11.462 -0.184,-1.685 -0.224,-3.436 0.011,-5.108 1.159,-8.231 -2.032,-12.435 -10.528,-14.013 -8.324,-1.546 -16.289,-4.939 -24.515,-7.137 -6.566,-1.755 -7.803,-6.065 -7.766,-12.163 0.194,-32.118 0.105,-64.238 0.077,-96.357 -0.01,-11.831 -0.143,-12.009 -11.799,-11.952 -19.904,0.098 -17.795,-2.02 -17.865,17.738 -0.086,24.729 0.009,49.458 -0.072,74.186 -0.008,2.422 1.2,5.712 -1.46,7.046 -2.612,1.309 -4.623,-1.496 -6.561,-2.955 -29.181,-21.963 -48.533,-50.771 -58.457,-85.759 -2.138,-7.538 -5.117,-10.856 -13.346,-10.433 -21.188,1.088 -22.715,-4.549 -15.057,20.48 14.919,48.757 43.791,86.836 88.344,112.483 8.722,5.021 9.748,18.855 1.594,25.084 -38.292,29.249 -58.947,68.607 -65.214,115.621 -9.594,71.978 11.542,133.553 64.807,183.443 4.273,4.003 5.469,8.059 5.456,13.44 -0.103,41.498 -0.07,82.997 -0.042,124.496 0.008,11.4 0.087,11.537 11.343,11.473 20.103,-0.114 18.281,2.351 18.323,-18.207 0.064,-31.266 -0.014,-62.533 0.039,-93.799 0.017,-9.457 0.619,-9.739 8.72,-5.174 45.883,25.857 95.179,39.436 147.749,42.312 50.07,2.739 98.569,-3.614 145.43,-21.763 18.964,-7.344 19.012,-7.222 19.007,-27.057 -0.001,-2.274 -0.13,-4.556 0.016,-6.82 0.388,-6.068 -1.545,-7.842 -7.323,-4.694 -28.073,15.292 -58.292,24.071 -89.855,27.855 -76.563,9.179 -148.957,-2.026 -214.716,-45.001 -6.752,-4.413 -9.265,-9.51 -9.203,-17.504 0.326,-42.349 0.153,-84.702 0.154,-127.053" /></g><g
           transform="translate(565.9401,658.7341)"
           id="g24"><path
             id="path26"
             style="fill:#834c9c;fill-opacity:1;fill-rule:nonzero;stroke:none"
             d="m 0,0 c -15.371,0.93 -31.675,-2.292 -47.503,-8.41 -35.365,-13.67 -56.391,-45.07 -56.331,-84.236 0.058,-37.865 19.372,-64.892 56.139,-78.957 20.97,-8.023 42.82,-9.275 64.647,-6.994 43.553,4.551 79.803,28.244 84.178,74.504 3.397,35.917 -5.109,68.041 -37.475,89.185 C 44.944,-2.684 23.605,0.376 0,0 m -133.562,-92.469 c -1.365,64.582 45.297,112.858 112.283,121.665 28.421,3.736 56.241,1.282 82.833,-9.582 44.853,-18.323 65.753,-54.015 69.859,-100.535 2.94,-33.318 -4.875,-63.84 -28.336,-89.004 -17.428,-18.694 -39.218,-29.683 -63.871,-35.388 -34.462,-7.974 -68.314,-5.874 -101.212,7.158 -45.92,18.191 -71.546,56.352 -71.556,105.686" /></g><g
           transform="translate(231.9501,487.9568)"
           id="g28"><path
             id="path30"
             style="fill:#834c9c;fill-opacity:1;fill-rule:nonzero;stroke:none"
             d="m 0,0 c 0,-66.525 0.008,-133.05 -0.006,-199.576 -0.003,-12.163 -0.044,-12.244 -12.342,-12.184 -19.121,0.093 -17.305,-1.954 -17.311,17.457 -0.039,121.394 -0.018,242.788 -0.023,364.182 -0.001,12.452 -0.021,12.462 -12.769,12.474 -16.774,0.015 -33.549,0.155 -50.32,-0.057 -6.029,-0.076 -8.803,1.892 -8.698,8.321 0.411,25.188 -2.654,21.144 20.256,21.364 23.31,0.224 46.624,0.075 69.936,0.038 11.145,-0.017 11.264,-0.135 11.267,-11.591 C 0.01,133.619 0,66.809 0,0" /></g><g
           transform="translate(555.253,342.9558)"
           id="g32"><path
             id="path34"
             style="fill:#834c9c;fill-opacity:1;fill-rule:nonzero;stroke:none"
             d="m 0,0 c -25.557,-0.665 -58.986,-8.907 -85.03,-36.571 -6.281,-6.672 -11.952,-13.828 -15.386,-22.323 -2.551,-6.311 -6.583,-8.615 -13.141,-7.961 -4.219,0.421 -8.53,0.33 -12.77,0.035 -7.669,-0.535 -8.637,2.792 -6.228,9.227 13.105,35.007 37.436,59.528 71.52,73.592 45.447,18.752 91.747,20.289 137.606,1.196 34.563,-14.389 59.479,-39.114 73.958,-73.882 3.837,-9.214 3.065,-9.297 -6.813,-10.261 -13.904,-1.358 -22.479,2.216 -30.389,15.719 C 93.495,-17.374 55.664,0.08 0,0" /></g><g
           transform="translate(130.5455,798.7636)"
           id="g36"><path
             id="path38"
             style="fill:#834c9c;fill-opacity:1;fill-rule:nonzero;stroke:none"
             d="m 0,0 c 0.058,17.114 -0.844,13.728 13.327,18.936 32.059,11.782 59.252,29.818 76.782,60.129 1.938,3.351 4.515,4.794 8.3,4.729 5.96,-0.101 11.937,-0.255 17.882,0.072 7.056,0.387 8.646,-2.089 5.601,-8.444 C 112.696,56.23 100.497,39.36 84.339,25.401 63.34,7.259 38.978,-4.563 12.733,-12.833 0.209,-16.78 0.028,-16.566 0,-3.407 -0.002,-2.271 0,-1.136 0,0" /></g></g></g></g></svg>