<?xml version="1.0" encoding="UTF-8" standalone="no"?>
<svg
   xmlns:dc="http://purl.org/dc/elements/1.1/"
   xmlns:cc="http://creativecommons.org/ns#"
   xmlns:rdf="http://www.w3.org/1999/02/22-rdf-syntax-ns#"
   xmlns:svg="http://www.w3.org/2000/svg"
   xmlns="http://www.w3.org/2000/svg"
   viewBox="0 0 1587.4 446.25867"
   height="446.25867"
   width="1587.4"
   xml:space="preserve"
   id="svg2"
   version="1.1"><metadata
     id="metadata8"><rdf:RDF><cc:Work
         rdf:about=""><dc:format>image/svg+xml</dc:format><dc:type
           rdf:resource="http://purl.org/dc/dcmitype/StillImage" /></cc:Work></rdf:RDF></metadata><defs
     id="defs6"><clipPath
       id="clipPath18"
       clipPathUnits="userSpaceOnUse"><path
         id="path16"
         d="M 0,334.694 H 1190.55 V 0 H 0 Z" /></clipPath></defs><g
     transform="matrix(1.3333333,0,0,-1.3333333,0,446.25867)"
     id="g10"><g
       id="g12"><g
         clip-path="url(#clipPath18)"
         id="g14"><g
           transform="translate(928.8129,140.0323)"
           id="g20"><path
             id="path22"
             style="fill:#834c9c;fill-opacity:1;fill-rule:nonzero;stroke:none"
             d="M 0,0 V 64.249 C -15.443,49.385 -16.549,15.122 0,0 m 8.793,33.176 c 0,-12.427 0.036,-24.854 -0.036,-37.28 -0.012,-2.001 0.558,-3.177 2.508,-3.928 2.459,-0.947 4.881,-2.002 7.451,-2.582 1.877,-0.424 2.647,-1.45 2.443,-3.319 -0.054,-0.488 -0.065,-0.995 0.003,-1.479 0.335,-2.383 -0.588,-3.6 -3.048,-4.057 -2.411,-0.448 -4.717,-1.43 -7.098,-2.067 -1.901,-0.508 -2.26,-1.756 -2.249,-3.521 0.056,-9.299 0.031,-18.599 0.023,-27.898 -0.003,-3.426 -0.042,-3.477 -3.417,-3.461 -5.762,0.028 -5.152,-0.585 -5.172,5.136 -0.025,7.159 0.003,14.319 -0.021,21.479 -0.002,0.701 0.347,1.654 -0.423,2.04 -0.756,0.379 -1.338,-0.433 -1.899,-0.856 -8.449,-6.359 -14.052,-14.699 -16.925,-24.829 -0.619,-2.183 -1.482,-3.144 -3.864,-3.021 -6.135,0.315 -6.577,-1.317 -4.36,5.929 4.32,14.117 12.679,25.142 25.578,32.568 2.526,1.453 2.823,5.459 0.462,7.262 -11.087,8.469 -17.067,19.864 -18.882,33.476 -2.777,20.84 3.342,38.668 18.764,53.113 1.237,1.159 1.584,2.333 1.58,3.891 -0.03,12.015 -0.021,24.03 -0.012,36.045 0.002,3.301 0.025,3.341 3.284,3.322 5.82,-0.033 5.293,0.681 5.305,-5.271 0.018,-9.053 -0.004,-18.105 0.011,-27.158 0.005,-2.738 0.179,-2.82 2.525,-1.498 13.284,7.486 27.557,11.418 42.778,12.251 14.496,0.793 28.539,-1.047 42.106,-6.301 5.491,-2.127 5.505,-2.091 5.503,-7.834 0,-0.659 -0.037,-1.319 0.005,-1.975 0.112,-1.757 -0.447,-2.27 -2.12,-1.359 C 91.468,84.421 82.718,86.963 73.58,88.059 51.413,90.716 30.452,87.472 11.413,75.03 9.458,73.752 8.731,72.276 8.748,69.962 8.843,57.7 8.793,45.438 8.793,33.176" /></g><g
           transform="translate(988.424,194.3724)"
           id="g24"><path
             id="path26"
             style="fill:#834c9c;fill-opacity:1;fill-rule:nonzero;stroke:none"
             d="m 0,0 c -4.45,0.269 -9.171,-0.664 -13.754,-2.435 -10.239,-3.958 -16.326,-13.049 -16.309,-24.389 0.017,-10.963 5.609,-18.788 16.254,-22.861 6.071,-2.322 12.398,-2.685 18.717,-2.024 12.61,1.317 23.106,8.177 24.372,21.571 0.984,10.399 -1.479,19.7 -10.85,25.822 C 13.013,-0.777 6.834,0.109 0,0 M -38.67,-26.773 C -39.066,-8.074 -25.555,5.903 -6.161,8.453 2.068,9.535 10.123,8.824 17.822,5.679 30.808,0.374 36.859,-9.96 38.048,-23.429 c 0.851,-9.647 -1.411,-18.484 -8.204,-25.77 -5.046,-5.412 -11.355,-8.594 -18.493,-10.245 -9.977,-2.309 -19.779,-1.701 -29.304,2.072 -13.295,5.267 -20.714,16.315 -20.717,30.599" /></g><g
           transform="translate(891.7235,144.9271)"
           id="g28"><path
             id="path30"
             style="fill:#834c9c;fill-opacity:1;fill-rule:nonzero;stroke:none"
             d="m 0,0 c 0,-19.261 0.002,-38.522 -0.002,-57.783 -0.001,-3.522 -0.012,-3.546 -3.573,-3.528 -5.536,0.027 -5.01,-0.566 -5.012,5.054 -0.012,35.148 -0.005,70.295 -0.007,105.442 0,3.605 -0.006,3.608 -3.697,3.612 -4.856,0.004 -9.713,0.045 -14.569,-0.017 -1.746,-0.022 -2.549,0.548 -2.518,2.41 0.119,7.292 -0.769,6.121 5.864,6.185 6.749,0.065 13.499,0.022 20.249,0.011 3.227,-0.005 3.261,-0.039 3.262,-3.356 C 0.003,38.687 0,19.343 0,0" /></g><g
           transform="translate(985.3298,102.9448)"
           id="g32"><path
             id="path34"
             style="fill:#834c9c;fill-opacity:1;fill-rule:nonzero;stroke:none"
             d="m 0,0 c -7.399,-0.192 -17.078,-2.579 -24.619,-10.588 -1.818,-1.932 -3.46,-4.004 -4.455,-6.464 -0.738,-1.827 -1.906,-2.494 -3.804,-2.305 -1.222,0.122 -2.47,0.096 -3.698,0.01 -2.22,-0.154 -2.5,0.809 -1.803,2.672 3.794,10.136 10.839,17.235 20.708,21.307 13.158,5.429 26.563,5.874 39.841,0.347 10.007,-4.167 17.221,-11.325 21.413,-21.392 1.111,-2.667 0.887,-2.691 -1.973,-2.971 -4.025,-0.393 -6.508,0.642 -8.798,4.552 C 27.07,-5.03 16.116,0.023 0,0" /></g><g
           transform="translate(862.3638,234.9153)"
           id="g36"><path
             id="path38"
             style="fill:#834c9c;fill-opacity:1;fill-rule:nonzero;stroke:none"
             d="m 0,0 c 0.017,4.955 -0.244,3.975 3.859,5.483 9.282,3.411 17.155,8.633 22.23,17.409 0.561,0.97 1.308,1.388 2.403,1.369 1.726,-0.029 3.457,-0.074 5.178,0.021 2.043,0.112 2.503,-0.605 1.621,-2.445 C 32.629,16.28 29.097,11.396 24.419,7.354 18.339,2.102 11.285,-1.321 3.687,-3.716 0.06,-4.858 0.008,-4.796 0,-0.986 -0.001,-0.658 0,-0.329 0,0" /></g><g
           transform="translate(141.1719,92.5498)"
           id="g40"><path
             id="path42"
             style="fill:none;stroke:#834c9c;stroke-width:8.50399971;stroke-linecap:butt;stroke-linejoin:miter;stroke-miterlimit:10;stroke-dasharray:none;stroke-opacity:1"
             d="m 0,0 h 49.89 v 56.466 h 26.532 c 19.729,0 21.09,-16.101 22.451,-31.521 0.68,-8.39 1.587,-16.781 4.082,-24.945 h 49.89 c -4.536,7.483 -4.763,26.759 -5.444,34.696 -1.813,20.183 -10.204,35.15 -23.81,40.366 16.555,6.123 24.264,23.81 24.264,40.591 0,30.615 -24.491,46.262 -52.837,46.262 H 0 Z m 49.89,123.364 h 23.358 c 19.048,0 24.717,-5.896 24.717,-16.101 0,-14.513 -12.699,-16.101 -21.996,-16.101 H 49.89 Z" /></g><g
           transform="translate(309.4355,92.5498)"
           id="g44"><path
             id="path46"
             style="fill:none;stroke:#834c9c;stroke-width:8.50399971;stroke-linecap:butt;stroke-linejoin:miter;stroke-miterlimit:10;stroke-dasharray:none;stroke-opacity:1"
             d="m 0,0 h 47.169 v 88.441 h 0.453 L 97.285,0 h 48.529 V 161.915 H 98.646 V 75.288 H 98.192 L 51.024,161.915 H 0 Z" /></g><g
           transform="translate(481.3262,92.5498)"
           id="g48"><path
             id="path50"
             style="fill:none;stroke:#834c9c;stroke-width:8.50399971;stroke-linecap:butt;stroke-linejoin:miter;stroke-miterlimit:10;stroke-dasharray:none;stroke-opacity:1"
             d="m 0,0 h 72.113 c 56.467,0 82.772,31.521 82.772,81.185 0,40.818 -19.049,80.73 -73.02,80.73 l -81.865,0 z m 49.89,120.416 h 15.874 c 36.056,0 39.231,-28.347 39.231,-38.552 0,-15.193 -4.535,-40.365 -35.602,-40.365 H 49.89 Z" /></g><g
           transform="translate(657.7549,92.5498)"
           id="g52"><path
             id="path54"
             style="fill:none;stroke:#834c9c;stroke-width:8.50399971;stroke-linecap:butt;stroke-linejoin:miter;stroke-miterlimit:10;stroke-dasharray:none;stroke-opacity:1"
             d="m 0,0 h 49.89 v 56.466 h 26.532 c 19.729,0 21.09,-16.101 22.451,-31.521 0.68,-8.39 1.587,-16.781 4.081,-24.945 h 49.891 c -4.536,7.483 -4.763,26.759 -5.444,34.696 -1.813,20.183 -10.204,35.15 -23.81,40.366 16.555,6.123 24.264,23.81 24.264,40.591 0,30.615 -24.491,46.262 -52.837,46.262 H 0 Z m 49.89,123.364 h 23.357 c 19.049,0 24.719,-5.896 24.719,-16.101 0,-14.513 -12.699,-16.101 -21.997,-16.101 H 49.89 Z" /></g></g></g></g></svg>